HIERARCHY
ROOT Hips
{
    OFFSET   0.000000   0.000000   0.000000
    CHANNELS 6 Xposition Yposition Zposition Zrotation Xrotation Yrotation
    JOINT Chest
    {
        OFFSET   0.000000   8.007240   0.000000
        CHANNELS 3 Zrotation Xrotation Yrotation
        JOINT Chest2
        {
            OFFSET   0.000000  22.077100   0.000000
            CHANNELS 3 Zrotation Xrotation Yrotation
            JOINT Neck
            {
                OFFSET   0.000000  23.254800   0.000000
                CHANNELS 3 Zrotation Xrotation Yrotation
                JOINT Head
                {
                    OFFSET   0.000000  14.370000   1.956600
                    CHANNELS 3 Zrotation Xrotation Yrotation
                    End Site
                    {
                        OFFSET   0.000000  19.566000   0.000000
                    }
                }
            }
            JOINT LeftCollar
            {
                OFFSET   3.911900  19.017000  -0.467064
                CHANNELS 3 Zrotation Xrotation Yrotation
                JOINT LeftShoulder
                {
                    OFFSET  10.383700   0.000000   0.000000
                    CHANNELS 3 Zrotation Xrotation Yrotation
                    JOINT LeftElbow
                    {
                        OFFSET  26.662100   0.001476   0.000517
                        CHANNELS 3 Zrotation Xrotation Yrotation
                        JOINT LeftWrist
                        {
                            OFFSET  28.869000  -0.000025  -0.000106
                            CHANNELS 3 Zrotation Xrotation Yrotation
                            JOINT LeftFinger0
                            {
                                OFFSET   2.044660  -2.323460   3.252850
                                CHANNELS 3 Zrotation Xrotation Yrotation
                                JOINT LeftFinger01
                                {
                                    OFFSET   3.088130   0.000000   0.000000
                                    CHANNELS 3 Zrotation Xrotation Yrotation
                                    JOINT LeftFinger02
                                    {
                                        OFFSET   2.639460   0.000000   0.000000
                                        CHANNELS 3 Zrotation Xrotation Yrotation
                                        End Site
                                        {
                                            OFFSET   2.582190   0.000000   0.000000
                                        }
                                    }
                                }
                            }
                            JOINT LeftFinger1
                            {
                                OFFSET   8.364480   0.000000   3.252850
                                CHANNELS 3 Zrotation Xrotation Yrotation
                                JOINT LeftFinger11
                                {
                                    OFFSET   4.646930   0.000000   0.000000
                                    CHANNELS 3 Zrotation Xrotation Yrotation
                                    JOINT LeftFinger12
                                    {
                                        OFFSET   2.323460   0.000000   0.000000
                                        CHANNELS 3 Zrotation Xrotation Yrotation
                                        End Site
                                        {
                                            OFFSET   2.273050   0.000000   0.000000
                                        }
                                    }
                                }
                            }
                            JOINT LeftFinger2
                            {
                                OFFSET   8.364490   0.000015   1.078090
                                CHANNELS 3 Zrotation Xrotation Yrotation
                                JOINT LeftFinger21
                                {
                                    OFFSET   5.111620   0.000000   0.000000
                                    CHANNELS 3 Zrotation Xrotation Yrotation
                                    JOINT LeftFinger22
                                    {
                                        OFFSET   2.788160   0.000016   0.000000
                                        CHANNELS 3 Zrotation Xrotation Yrotation
                                        End Site
                                        {
                                            OFFSET   2.727660   0.000000   0.000000
                                        }
                                    }
                                }
                            }
                            JOINT LeftFinger3
                            {
                                OFFSET   7.899780   0.000017  -1.078090
                                CHANNELS 3 Zrotation Xrotation Yrotation
                                JOINT LeftFinger31
                                {
                                    OFFSET   4.646930   0.000000   0.000000
                                    CHANNELS 3 Zrotation Xrotation Yrotation
                                    JOINT LeftFinger32
                                    {
                                        OFFSET   2.323470   0.000000   0.000000
                                        CHANNELS 3 Zrotation Xrotation Yrotation
                                        End Site
                                        {
                                            OFFSET   2.273050   0.000000   0.000000
                                        }
                                    }
                                }
                            }
                            JOINT LeftFinger4
                            {
                                OFFSET   7.435090   0.000000  -3.252850
                                CHANNELS 3 Zrotation Xrotation Yrotation
                                JOINT LeftFinger41
                                {
                                    OFFSET   3.717550   0.000000   0.000000
                                    CHANNELS 3 Zrotation Xrotation Yrotation
                                    JOINT LeftFinger42
                                    {
                                        OFFSET   1.858770   0.000000   0.000000
                                        CHANNELS 3 Zrotation Xrotation Yrotation
                                        End Site
                                        {
                                            OFFSET   1.818440   0.000000   0.000000
                                        }
                                    }
                                }
                            }
                        }
                    }
                }
            }
            JOINT RightCollar
            {
                OFFSET  -3.911900  19.017000  -0.467063
                CHANNELS 3 Zrotation Xrotation Yrotation
                JOINT RightShoulder
                {
                    OFFSET -10.383700   0.000019   0.000000
                    CHANNELS 3 Zrotation Xrotation Yrotation
                    JOINT RightElbow
                    {
                        OFFSET -26.662100   0.001175   0.000102
                        CHANNELS 3 Zrotation Xrotation Yrotation
                        JOINT RightWrist
                        {
                            OFFSET -28.869000   0.000016  -0.000079
                            CHANNELS 3 Zrotation Xrotation Yrotation
                            JOINT RightFinger0
                            {
                                OFFSET  -2.044660  -2.323490   3.252850
                                CHANNELS 3 Zrotation Xrotation Yrotation
                                JOINT RightFinger01
                                {
                                    OFFSET  -3.088140   0.000000   0.000000
                                    CHANNELS 3 Zrotation Xrotation Yrotation
                                    JOINT RightFinger02
                                    {
                                        OFFSET  -2.639460   0.000000   0.000000
                                        CHANNELS 3 Zrotation Xrotation Yrotation
                                        End Site
                                        {
                                            OFFSET  -2.582190   0.000000   0.000000
                                        }
                                    }
                                }
                            }
                            JOINT RightFinger1
                            {
                                OFFSET  -8.364480   0.000000   3.252850
                                CHANNELS 3 Zrotation Xrotation Yrotation
                                JOINT RightFinger11
                                {
                                    OFFSET  -4.646930   0.000000   0.000000
                                    CHANNELS 3 Zrotation Xrotation Yrotation
                                    JOINT RightFinger12
                                    {
                                        OFFSET  -2.323470   0.000000   0.000000
                                        CHANNELS 3 Zrotation Xrotation Yrotation
                                        End Site
                                        {
                                            OFFSET  -2.273050   0.000000   0.000000
                                        }
                                    }
                                }
                            }
                            JOINT RightFinger2
                            {
                                OFFSET  -8.364480   0.000000   1.078090
                                CHANNELS 3 Zrotation Xrotation Yrotation
                                JOINT RightFinger21
                                {
                                    OFFSET  -5.111620   0.000000   0.000000
                                    CHANNELS 3 Zrotation Xrotation Yrotation
                                    JOINT RightFinger22
                                    {
                                        OFFSET  -2.788160   0.000000   0.000000
                                        CHANNELS 3 Zrotation Xrotation Yrotation
                                        End Site
                                        {
                                            OFFSET  -2.727660   0.000000   0.000000
                                        }
                                    }
                                }
                            }
                            JOINT RightFinger3
                            {
                                OFFSET  -7.899780   0.000000  -1.078090
                                CHANNELS 3 Zrotation Xrotation Yrotation
                                JOINT RightFinger31
                                {
                                    OFFSET  -4.646930   0.000000   0.000000
                                    CHANNELS 3 Zrotation Xrotation Yrotation
                                    JOINT RightFinger32
                                    {
                                        OFFSET  -2.323470   0.000000   0.000000
                                        CHANNELS 3 Zrotation Xrotation Yrotation
                                        End Site
                                        {
                                            OFFSET  -2.273050   0.000000   0.000000
                                        }
                                    }
                                }
                            }
                            JOINT RightFinger4
                            {
                                OFFSET  -7.435090   0.000000  -3.252850
                                CHANNELS 3 Zrotation Xrotation Yrotation
                                JOINT RightFinger41
                                {
                                    OFFSET  -3.717550   0.000000   0.000000
                                    CHANNELS 3 Zrotation Xrotation Yrotation
                                    JOINT RightFinger42
                                    {
                                        OFFSET  -1.858770   0.000000   0.000000
                                        CHANNELS 3 Zrotation Xrotation Yrotation
                                        End Site
                                        {
                                            OFFSET  -1.818440   0.000000   0.000000
                                        }
                                    }
                                }
                            }
                        }
                    }
                }
            }
        }
    }
    JOINT LeftHip
    {
        OFFSET   9.783040   0.000000   0.000000
        CHANNELS 3 Zrotation Xrotation Yrotation
        JOINT LeftKnee
        {
            OFFSET   0.000032 -41.789100  -0.002222
            CHANNELS 3 Zrotation Xrotation Yrotation
            JOINT LeftAnkle
            {
                OFFSET   0.000087 -41.133200  -0.000135
                CHANNELS 3 Zrotation Xrotation Yrotation
                JOINT LeftToe
                {
                    OFFSET   0.000000  -6.358960  14.674500
                    CHANNELS 3 Zrotation Xrotation Yrotation
                    End Site
                    {
                        OFFSET   0.000000   0.000000   3.913200
                    }
                }
            }
        }
    }
    JOINT RightHip
    {
        OFFSET  -9.783040   0.000000   0.000000
        CHANNELS 3 Zrotation Xrotation Yrotation
        JOINT RightKnee
        {
            OFFSET   0.000047 -41.789100  -0.000896
            CHANNELS 3 Zrotation Xrotation Yrotation
            JOINT RightAnkle
            {
                OFFSET  -0.000117 -41.133300  -0.000248
                CHANNELS 3 Zrotation Xrotation Yrotation
                JOINT RightToe
                {
                    OFFSET   0.000000  -6.358970  14.674500
                    CHANNELS 3 Zrotation Xrotation Yrotation
                    End Site
                    {
                        OFFSET   0.000000   0.000000   3.913200
                    }
                }
            }
        }
    }
}
MOTION
Frames: 4
Frame Time:   0.016667
 -0.014364  89.566600   2.112780  -2.741690  -2.681190  -2.707300   0.966764   2.354770   0.395083   1.919660   4.715800   0.751266   1.366420  -0.226740   0.016760   2.244970  -0.460024   3.227250  -3.304820   1.862960  -2.745520 -71.143000  17.839600  -6.598210  -2.409760  -3.952290  -8.426740   8.596130  -5.471340  15.138700  43.022400  29.721200 -66.786800 -20.148100  -0.005858   0.011721  -5.082500  -0.002935   0.002331 -36.031500   6.169410  -8.410260 -29.839100  -0.001550  -0.002237 -20.889600   0.005006  -0.001819 -30.426000   2.035370  -3.455750 -45.731200  -0.001853  -0.000801 -30.457000   0.010469  -0.000918 -29.152600  -4.842620   8.607490 -44.279600   0.008043   0.000705 -29.497900   0.001902   0.000364 -38.463600  -6.174870   7.713000 -58.322400  -0.001805   0.000492 -38.828100   0.002232  -0.001817   7.258140   0.273925   8.390470  69.726600  15.432300   1.904400   1.392200  -1.844270   5.008730 -12.771800 -17.681700  -0.159348 -38.512200  33.171500  66.912700  31.442200   0.003351  -0.001931  10.721100   0.000187  -0.000141  30.645000   7.125750  11.825600  25.677800  -0.001851  -0.002408  17.974400  -0.001753  -0.002505  27.801500   5.501430  10.305100  34.195200  -0.003433  -0.003794  22.774000  -0.003041  -0.002740  28.427700   4.164670   7.642050  39.113600  -0.002700  -0.002408  26.049600  -0.002313  -0.001543  38.817700  -0.737499  -0.916667  58.235300  -0.001175  -0.001103  38.784700  -0.000710   0.014644   2.787450   7.190770   1.691940   1.368040   0.649531   1.837250  -2.478630  -4.065630  12.247400  -0.000000   0.000000   0.000000   2.271080   2.905110  -5.840670   1.298300   4.128140   1.984080  -5.512330  -3.318210   2.537150  -0.000000   0.000000   0.000000
 -0.020558  89.566600   2.126230  -2.741670  -2.673380  -2.714760   0.966800   2.357700   0.395199   1.919740   4.721670   0.751437   1.366260  -0.226729   0.016747   2.244720  -0.459639   3.207010  -3.306330   1.870030  -2.749110 -71.134100  17.852800  -6.610840  -2.411530  -3.961390  -8.432660   8.600820  -5.471260  15.127100  43.025500  29.718800 -66.765600 -20.148000  -0.006106   0.011793  -5.082490  -0.003053   0.002361 -36.028700   6.169210  -8.410010 -29.839100  -0.001556  -0.002254 -20.889600   0.005002  -0.001834 -30.419800   2.035650  -3.447570 -45.722100  -0.001872  -0.000817 -30.451000   0.010464  -0.000928 -29.153400  -4.841020   8.602230 -44.279700   0.008041   0.000710 -29.497900   0.001894   0.000363 -38.464600  -6.171750   7.707880 -58.322400  -0.001820   0.000477 -38.827800   0.002212  -0.001793   7.246840   0.284979   8.395330  69.610500  15.400300   1.923810   1.381360  -1.822570   5.031380 -12.761800 -17.719300  -0.189300 -38.477000  33.157900  66.908700  31.480000   0.003367  -0.001981  10.740000   0.000186  -0.000130  30.671000   7.123160  11.805900  25.697800  -0.001850  -0.002405  17.988500  -0.001752  -0.002500  27.811000   5.497880  10.294600  34.268400  -0.003433  -0.003790  22.822800  -0.003037  -0.002737  28.430000   4.159870   7.632190  39.176200  -0.002698  -0.002406  26.091300  -0.002307  -0.001541  38.847100  -0.745664  -0.925864  58.279600  -0.001172  -0.001100  38.814200  -0.000709   0.014647   2.788040   7.171120   1.694750   1.372240   0.691677   1.834170  -2.480040  -4.099070  12.254300  -0.000000   0.000000  -0.000000   2.274500   2.903060  -5.840660   1.297670   4.130760   1.990690  -5.512340  -3.318210   2.537220   0.000000   0.000000   0.000000
 -0.032034  89.566600   2.148110  -2.741600  -2.660160  -2.726690   0.966807   2.363730   0.395518   1.919710   4.733740   0.751979   1.366020  -0.226718   0.016723   2.244280  -0.459259   3.175360  -3.310110   1.882350  -2.756300 -71.116200  17.877000  -6.634360  -2.415290  -3.981200  -8.443520   8.608570  -5.471350  15.108900  43.027400  29.713000 -66.740000 -20.147900  -0.006512   0.011938  -5.082480  -0.003249   0.002415 -36.023500   6.169010  -8.409750 -29.839100  -0.001569  -0.002295 -20.889500   0.004991  -0.001867 -30.412900   2.036030  -3.439400 -45.711700  -0.001913  -0.000855 -30.444000   0.010450  -0.000949 -29.154800  -4.837490   8.593210 -44.279800   0.008036   0.000721 -29.497900   0.001872   0.000363 -38.466300  -6.165900   7.699320 -58.322400  -0.001852   0.000444 -38.827300   0.002158  -0.001732   7.231630   0.298708   8.408560  69.426800  15.353200   1.951070   1.367240  -1.799790   5.064490 -12.740600 -17.762400  -0.238527 -38.418800  33.135900  66.912400  31.542500   0.003383  -0.002031  10.771200   0.000184  -0.000119  30.713100   7.120570  11.786200  25.731000  -0.001849  -0.002398  18.011700  -0.001750  -0.002485  27.826100   5.492110  10.277600  34.386800  -0.003431  -0.003781  22.901700  -0.003031  -0.002727  28.434700   4.151400   7.614850  39.286400  -0.002693  -0.002398  26.164700  -0.002295  -0.001532  38.903400  -0.761352  -0.943456  58.364400  -0.001163  -0.001090  38.870700  -0.000704   0.014654   2.790360   7.151450   1.701170   1.378680   0.733828   1.822560  -2.487400  -4.133530  12.270900   0.000000   0.000000  -0.000000   2.282220   2.900130  -5.840650   1.296780   4.133360   2.000720  -5.512420  -3.318220   2.537290  -0.000000   0.000000  -0.000000
 -0.043284  89.566500   2.164730  -2.745640  -2.648910  -2.736300   0.965557   2.370620   0.396059   1.917130   4.747520   0.753009   1.365880  -0.226737   0.016701   2.243840  -0.460015   3.153980  -3.316000   1.894150  -2.764660 -71.095900  17.899100  -6.657590  -2.422870  -4.006810  -8.454210   8.615170  -5.473710  15.097200  43.026200  29.708800 -66.735200 -20.147800  -0.006894   0.012125  -5.082470  -0.003443   0.002471 -36.016800   6.169060  -8.409820 -29.839000  -0.001590  -0.002356 -20.889300   0.004973  -0.001910 -30.412000   2.036180  -3.442540 -45.710100  -0.001971  -0.000907 -30.443000   0.010429  -0.000978 -29.156200  -4.832210   8.585010 -44.279700   0.008027   0.000739 -29.494300   0.001832   0.000367 -38.462900  -6.159300   7.692070 -58.316000  -0.001896   0.000401 -38.827100   0.002071  -0.001638   7.226800   0.301821   8.429620  69.300100  15.329800   1.963150   1.363330  -1.798510   5.081050 -12.717000 -17.768700  -0.279608 -38.349900  33.118200  66.937600  31.589400   0.003382  -0.002031  10.794600   0.000188  -0.000119  30.743700   7.136230  11.798000  25.757900  -0.001843  -0.002388  18.030600  -0.001745  -0.002459  27.837500   5.486970  10.264700  34.477400  -0.003417  -0.003771  22.962000  -0.003026  -0.002704  28.440800   4.143170   7.598110  39.393200  -0.002683  -0.002387  26.235800  -0.002283  -0.001517  38.967000  -0.779146  -0.963254  58.460100  -0.001151  -0.001072  38.934400  -0.000695   0.014666   2.797350   7.162650   1.710930   1.382520   0.715763   1.798670  -2.497180  -4.133920  12.296400   0.000000   0.000000  -0.000000   2.293600   2.899180  -5.840990   1.298960   4.128860   2.005410  -5.518860  -3.318470   2.537100   0.000000   0.000000  -0.000000
